<mxfile host="app.diagrams.net" modified="2020-06-04T12:46:24.476Z" agent="5.0 (Windows)" etag="QSCuIscVhZimVXlOWpqG" version="13.1.14" type="github">
  <diagram id="bSRufLqVA1Szm_SpAHjt" name="Page-1">
    <mxGraphModel dx="813" dy="439" grid="1" gridSize="10" guides="1" tooltips="1" connect="1" arrows="1" fold="1" page="1" pageScale="1" pageWidth="850" pageHeight="1100" math="0" shadow="0">
      <root>
        <mxCell id="0" />
        <mxCell id="1" parent="0" />
        <mxCell id="IG6GarAEUEpLXlJMv6_5-1" value="" style="rounded=1;whiteSpace=wrap;html=1;dashed=1;" vertex="1" parent="1">
          <mxGeometry x="250" y="280" width="440" height="330" as="geometry" />
        </mxCell>
        <mxCell id="t0zLgR5mg5bqfj8AAHoA-35" value="" style="endArrow=classic;html=1;entryX=0.171;entryY=0;entryDx=0;entryDy=0;entryPerimeter=0;" parent="1" edge="1">
          <mxGeometry width="50" height="50" relative="1" as="geometry">
            <mxPoint x="509.92" y="370" as="sourcePoint" />
            <mxPoint x="509.96" y="391" as="targetPoint" />
          </mxGeometry>
        </mxCell>
        <mxCell id="t0zLgR5mg5bqfj8AAHoA-36" value="" style="endArrow=classic;html=1;entryX=0.171;entryY=0;entryDx=0;entryDy=0;entryPerimeter=0;" parent="1" edge="1">
          <mxGeometry width="50" height="50" relative="1" as="geometry">
            <mxPoint x="519.92" y="370" as="sourcePoint" />
            <mxPoint x="519.9599999999999" y="391" as="targetPoint" />
          </mxGeometry>
        </mxCell>
        <mxCell id="t0zLgR5mg5bqfj8AAHoA-37" value="" style="endArrow=classic;html=1;entryX=0.171;entryY=0;entryDx=0;entryDy=0;entryPerimeter=0;" parent="1" edge="1">
          <mxGeometry width="50" height="50" relative="1" as="geometry">
            <mxPoint x="529.92" y="370" as="sourcePoint" />
            <mxPoint x="529.9599999999999" y="391" as="targetPoint" />
          </mxGeometry>
        </mxCell>
        <mxCell id="t0zLgR5mg5bqfj8AAHoA-44" value="" style="shape=hexagon;perimeter=hexagonPerimeter2;whiteSpace=wrap;html=1;size=0.125;" parent="1" vertex="1">
          <mxGeometry x="270" y="430" width="400" height="120" as="geometry" />
        </mxCell>
        <mxCell id="t0zLgR5mg5bqfj8AAHoA-3" style="edgeStyle=orthogonalEdgeStyle;rounded=0;orthogonalLoop=1;jettySize=auto;html=1;exitX=0.5;exitY=1;exitDx=0;exitDy=0;entryX=0.5;entryY=0;entryDx=0;entryDy=0;entryPerimeter=0;" parent="1" source="t0zLgR5mg5bqfj8AAHoA-1" target="t0zLgR5mg5bqfj8AAHoA-2" edge="1">
          <mxGeometry relative="1" as="geometry" />
        </mxCell>
        <mxCell id="t0zLgR5mg5bqfj8AAHoA-1" value="Volve Dataset" style="shape=datastore;whiteSpace=wrap;html=1;" parent="1" vertex="1">
          <mxGeometry x="447.5" y="80" width="165" height="30" as="geometry" />
        </mxCell>
        <mxCell id="t0zLgR5mg5bqfj8AAHoA-70" style="edgeStyle=orthogonalEdgeStyle;rounded=0;orthogonalLoop=1;jettySize=auto;html=1;exitX=0.5;exitY=1;exitDx=0;exitDy=0;exitPerimeter=0;entryX=0.5;entryY=0;entryDx=0;entryDy=0;" parent="1" source="t0zLgR5mg5bqfj8AAHoA-2" target="t0zLgR5mg5bqfj8AAHoA-69" edge="1">
          <mxGeometry relative="1" as="geometry" />
        </mxCell>
        <mxCell id="t0zLgR5mg5bqfj8AAHoA-2" value="F9A well" style="shape=note;whiteSpace=wrap;html=1;backgroundOutline=1;darkOpacity=0.05;size=16;" parent="1" vertex="1">
          <mxGeometry x="280" y="130" width="500" height="30" as="geometry" />
        </mxCell>
        <mxCell id="t0zLgR5mg5bqfj8AAHoA-48" style="edgeStyle=orthogonalEdgeStyle;rounded=0;orthogonalLoop=1;jettySize=auto;html=1;entryX=0.5;entryY=0;entryDx=0;entryDy=0;" parent="1" source="t0zLgR5mg5bqfj8AAHoA-5" target="t0zLgR5mg5bqfj8AAHoA-47" edge="1">
          <mxGeometry relative="1" as="geometry" />
        </mxCell>
        <mxCell id="t0zLgR5mg5bqfj8AAHoA-5" value="inclination" style="rounded=1;whiteSpace=wrap;html=1;" parent="1" vertex="1">
          <mxGeometry x="280" y="292" width="80" height="30" as="geometry" />
        </mxCell>
        <mxCell id="t0zLgR5mg5bqfj8AAHoA-6" value="" style="endArrow=classic;html=1;exitX=0.112;exitY=0.988;exitDx=0;exitDy=0;exitPerimeter=0;entryX=0.5;entryY=0;entryDx=0;entryDy=0;" parent="1" target="t0zLgR5mg5bqfj8AAHoA-5" edge="1">
          <mxGeometry width="50" height="50" relative="1" as="geometry">
            <mxPoint x="320.31999999999994" y="271.5200000000001" as="sourcePoint" />
            <mxPoint x="450" y="312" as="targetPoint" />
          </mxGeometry>
        </mxCell>
        <mxCell id="t0zLgR5mg5bqfj8AAHoA-7" value="all* other logged parameter" style="rounded=1;whiteSpace=wrap;html=1;" parent="1" vertex="1">
          <mxGeometry x="400" y="292" width="240" height="30" as="geometry" />
        </mxCell>
        <mxCell id="t0zLgR5mg5bqfj8AAHoA-66" value="&lt;div&gt;PCA&lt;/div&gt;&lt;div&gt;model&lt;/div&gt;" style="edgeStyle=orthogonalEdgeStyle;rounded=0;orthogonalLoop=1;jettySize=auto;html=1;exitX=1;exitY=0.5;exitDx=0;exitDy=0;dashed=1;" parent="1" source="t0zLgR5mg5bqfj8AAHoA-8" edge="1">
          <mxGeometry y="16" relative="1" as="geometry">
            <mxPoint x="700" y="356" as="targetPoint" />
            <mxPoint as="offset" />
          </mxGeometry>
        </mxCell>
        <mxCell id="t0zLgR5mg5bqfj8AAHoA-8" value="Principle Component Analysis" style="shape=hexagon;perimeter=hexagonPerimeter2;whiteSpace=wrap;html=1;size=0.125;" parent="1" vertex="1">
          <mxGeometry x="400" y="342" width="240" height="28" as="geometry" />
        </mxCell>
        <mxCell id="t0zLgR5mg5bqfj8AAHoA-14" value="" style="endArrow=classic;html=1;entryX=0.171;entryY=0;entryDx=0;entryDy=0;entryPerimeter=0;" parent="1" edge="1">
          <mxGeometry width="50" height="50" relative="1" as="geometry">
            <mxPoint x="514.7" y="271" as="sourcePoint" />
            <mxPoint x="514.74" y="292" as="targetPoint" />
          </mxGeometry>
        </mxCell>
        <mxCell id="t0zLgR5mg5bqfj8AAHoA-15" value="" style="endArrow=classic;html=1;entryX=0.171;entryY=0;entryDx=0;entryDy=0;entryPerimeter=0;" parent="1" edge="1">
          <mxGeometry width="50" height="50" relative="1" as="geometry">
            <mxPoint x="504.76" y="271" as="sourcePoint" />
            <mxPoint x="504.79999999999995" y="292" as="targetPoint" />
          </mxGeometry>
        </mxCell>
        <mxCell id="t0zLgR5mg5bqfj8AAHoA-16" value="" style="endArrow=classic;html=1;entryX=0.171;entryY=0;entryDx=0;entryDy=0;entryPerimeter=0;" parent="1" edge="1">
          <mxGeometry width="50" height="50" relative="1" as="geometry">
            <mxPoint x="484.76" y="271" as="sourcePoint" />
            <mxPoint x="484.79999999999995" y="292" as="targetPoint" />
          </mxGeometry>
        </mxCell>
        <mxCell id="t0zLgR5mg5bqfj8AAHoA-17" value="" style="endArrow=classic;html=1;entryX=0.171;entryY=0;entryDx=0;entryDy=0;entryPerimeter=0;" parent="1" edge="1">
          <mxGeometry width="50" height="50" relative="1" as="geometry">
            <mxPoint x="524.76" y="271" as="sourcePoint" />
            <mxPoint x="524.8" y="292" as="targetPoint" />
          </mxGeometry>
        </mxCell>
        <mxCell id="t0zLgR5mg5bqfj8AAHoA-18" value="" style="endArrow=classic;html=1;entryX=0.171;entryY=0;entryDx=0;entryDy=0;entryPerimeter=0;" parent="1" edge="1">
          <mxGeometry width="50" height="50" relative="1" as="geometry">
            <mxPoint x="474.76" y="271" as="sourcePoint" />
            <mxPoint x="474.79999999999995" y="292" as="targetPoint" />
          </mxGeometry>
        </mxCell>
        <mxCell id="t0zLgR5mg5bqfj8AAHoA-19" value="" style="endArrow=classic;html=1;entryX=0.171;entryY=0;entryDx=0;entryDy=0;entryPerimeter=0;" parent="1" edge="1">
          <mxGeometry width="50" height="50" relative="1" as="geometry">
            <mxPoint x="494.76" y="271" as="sourcePoint" />
            <mxPoint x="494.79999999999995" y="292" as="targetPoint" />
          </mxGeometry>
        </mxCell>
        <mxCell id="t0zLgR5mg5bqfj8AAHoA-20" value="" style="endArrow=classic;html=1;entryX=0.171;entryY=0;entryDx=0;entryDy=0;entryPerimeter=0;" parent="1" edge="1">
          <mxGeometry width="50" height="50" relative="1" as="geometry">
            <mxPoint x="534.76" y="271" as="sourcePoint" />
            <mxPoint x="534.8" y="292" as="targetPoint" />
          </mxGeometry>
        </mxCell>
        <mxCell id="t0zLgR5mg5bqfj8AAHoA-21" value="" style="endArrow=classic;html=1;entryX=0.171;entryY=0;entryDx=0;entryDy=0;entryPerimeter=0;" parent="1" edge="1">
          <mxGeometry width="50" height="50" relative="1" as="geometry">
            <mxPoint x="544.76" y="271" as="sourcePoint" />
            <mxPoint x="544.8" y="292" as="targetPoint" />
          </mxGeometry>
        </mxCell>
        <mxCell id="t0zLgR5mg5bqfj8AAHoA-22" value="" style="endArrow=classic;html=1;entryX=0.171;entryY=0;entryDx=0;entryDy=0;entryPerimeter=0;" parent="1" edge="1">
          <mxGeometry width="50" height="50" relative="1" as="geometry">
            <mxPoint x="554.76" y="271" as="sourcePoint" />
            <mxPoint x="554.8" y="292" as="targetPoint" />
          </mxGeometry>
        </mxCell>
        <mxCell id="t0zLgR5mg5bqfj8AAHoA-23" value="" style="endArrow=classic;html=1;entryX=0.171;entryY=0;entryDx=0;entryDy=0;entryPerimeter=0;" parent="1" edge="1">
          <mxGeometry width="50" height="50" relative="1" as="geometry">
            <mxPoint x="564.76" y="271" as="sourcePoint" />
            <mxPoint x="564.8" y="292" as="targetPoint" />
          </mxGeometry>
        </mxCell>
        <mxCell id="t0zLgR5mg5bqfj8AAHoA-25" value="" style="endArrow=classic;html=1;entryX=0.171;entryY=0;entryDx=0;entryDy=0;entryPerimeter=0;" parent="1" edge="1">
          <mxGeometry width="50" height="50" relative="1" as="geometry">
            <mxPoint x="514.7" y="321" as="sourcePoint" />
            <mxPoint x="514.74" y="342" as="targetPoint" />
          </mxGeometry>
        </mxCell>
        <mxCell id="t0zLgR5mg5bqfj8AAHoA-26" value="" style="endArrow=classic;html=1;entryX=0.171;entryY=0;entryDx=0;entryDy=0;entryPerimeter=0;" parent="1" edge="1">
          <mxGeometry width="50" height="50" relative="1" as="geometry">
            <mxPoint x="504.76" y="321" as="sourcePoint" />
            <mxPoint x="504.79999999999995" y="342" as="targetPoint" />
          </mxGeometry>
        </mxCell>
        <mxCell id="t0zLgR5mg5bqfj8AAHoA-27" value="" style="endArrow=classic;html=1;entryX=0.171;entryY=0;entryDx=0;entryDy=0;entryPerimeter=0;" parent="1" edge="1">
          <mxGeometry width="50" height="50" relative="1" as="geometry">
            <mxPoint x="484.76" y="321" as="sourcePoint" />
            <mxPoint x="484.79999999999995" y="342" as="targetPoint" />
          </mxGeometry>
        </mxCell>
        <mxCell id="t0zLgR5mg5bqfj8AAHoA-28" value="" style="endArrow=classic;html=1;entryX=0.171;entryY=0;entryDx=0;entryDy=0;entryPerimeter=0;" parent="1" edge="1">
          <mxGeometry width="50" height="50" relative="1" as="geometry">
            <mxPoint x="524.76" y="321" as="sourcePoint" />
            <mxPoint x="524.8" y="342" as="targetPoint" />
          </mxGeometry>
        </mxCell>
        <mxCell id="t0zLgR5mg5bqfj8AAHoA-29" value="" style="endArrow=classic;html=1;entryX=0.171;entryY=0;entryDx=0;entryDy=0;entryPerimeter=0;" parent="1" edge="1">
          <mxGeometry width="50" height="50" relative="1" as="geometry">
            <mxPoint x="474.76" y="321" as="sourcePoint" />
            <mxPoint x="474.79999999999995" y="342" as="targetPoint" />
          </mxGeometry>
        </mxCell>
        <mxCell id="t0zLgR5mg5bqfj8AAHoA-30" value="" style="endArrow=classic;html=1;entryX=0.171;entryY=0;entryDx=0;entryDy=0;entryPerimeter=0;" parent="1" edge="1">
          <mxGeometry width="50" height="50" relative="1" as="geometry">
            <mxPoint x="494.76" y="321" as="sourcePoint" />
            <mxPoint x="494.79999999999995" y="342" as="targetPoint" />
          </mxGeometry>
        </mxCell>
        <mxCell id="t0zLgR5mg5bqfj8AAHoA-31" value="" style="endArrow=classic;html=1;entryX=0.171;entryY=0;entryDx=0;entryDy=0;entryPerimeter=0;" parent="1" edge="1">
          <mxGeometry width="50" height="50" relative="1" as="geometry">
            <mxPoint x="534.76" y="321" as="sourcePoint" />
            <mxPoint x="534.8" y="342" as="targetPoint" />
          </mxGeometry>
        </mxCell>
        <mxCell id="t0zLgR5mg5bqfj8AAHoA-32" value="" style="endArrow=classic;html=1;entryX=0.171;entryY=0;entryDx=0;entryDy=0;entryPerimeter=0;" parent="1" edge="1">
          <mxGeometry width="50" height="50" relative="1" as="geometry">
            <mxPoint x="544.76" y="321" as="sourcePoint" />
            <mxPoint x="544.8" y="342" as="targetPoint" />
          </mxGeometry>
        </mxCell>
        <mxCell id="t0zLgR5mg5bqfj8AAHoA-33" value="" style="endArrow=classic;html=1;entryX=0.171;entryY=0;entryDx=0;entryDy=0;entryPerimeter=0;" parent="1" edge="1">
          <mxGeometry width="50" height="50" relative="1" as="geometry">
            <mxPoint x="554.76" y="321" as="sourcePoint" />
            <mxPoint x="554.8" y="342" as="targetPoint" />
          </mxGeometry>
        </mxCell>
        <mxCell id="t0zLgR5mg5bqfj8AAHoA-34" value="" style="endArrow=classic;html=1;entryX=0.171;entryY=0;entryDx=0;entryDy=0;entryPerimeter=0;" parent="1" edge="1">
          <mxGeometry width="50" height="50" relative="1" as="geometry">
            <mxPoint x="564.76" y="321" as="sourcePoint" />
            <mxPoint x="564.8" y="342" as="targetPoint" />
          </mxGeometry>
        </mxCell>
        <mxCell id="t0zLgR5mg5bqfj8AAHoA-38" value="(0, n%) of data" style="shape=process;whiteSpace=wrap;html=1;backgroundOutline=1;" parent="1" vertex="1">
          <mxGeometry x="280" y="241" width="290" height="30" as="geometry" />
        </mxCell>
        <mxCell id="t0zLgR5mg5bqfj8AAHoA-74" style="edgeStyle=orthogonalEdgeStyle;rounded=0;orthogonalLoop=1;jettySize=auto;html=1;exitX=0.5;exitY=1;exitDx=0;exitDy=0;entryX=1;entryY=0.5;entryDx=0;entryDy=0;" parent="1" source="t0zLgR5mg5bqfj8AAHoA-39" target="t0zLgR5mg5bqfj8AAHoA-62" edge="1">
          <mxGeometry relative="1" as="geometry" />
        </mxCell>
        <mxCell id="t0zLgR5mg5bqfj8AAHoA-39" value="&lt;div&gt;(n%, n%+20) of data&lt;/div&gt;&lt;div&gt;Testing dataset&lt;br&gt;&lt;/div&gt;" style="shape=process;whiteSpace=wrap;html=1;backgroundOutline=1;" parent="1" vertex="1">
          <mxGeometry x="630" y="236.5" width="150" height="39" as="geometry" />
        </mxCell>
        <mxCell id="t0zLgR5mg5bqfj8AAHoA-40" value="" style="endArrow=classic;html=1;entryX=0.171;entryY=0;entryDx=0;entryDy=0;entryPerimeter=0;" parent="1" edge="1">
          <mxGeometry width="50" height="50" relative="1" as="geometry">
            <mxPoint x="410" y="220" as="sourcePoint" />
            <mxPoint x="410.03999999999996" y="241" as="targetPoint" />
          </mxGeometry>
        </mxCell>
        <mxCell id="t0zLgR5mg5bqfj8AAHoA-43" value="Regression model" style="shape=hexagon;perimeter=hexagonPerimeter2;whiteSpace=wrap;html=1;size=0.15217391304347827;" parent="1" vertex="1">
          <mxGeometry x="396.25" y="450" width="147.5" height="30" as="geometry" />
        </mxCell>
        <mxCell id="t0zLgR5mg5bqfj8AAHoA-46" style="edgeStyle=orthogonalEdgeStyle;rounded=0;orthogonalLoop=1;jettySize=auto;html=1;exitX=0.5;exitY=1;exitDx=0;exitDy=0;entryX=1;entryY=0.5;entryDx=0;entryDy=0;" parent="1" source="t0zLgR5mg5bqfj8AAHoA-43" target="t0zLgR5mg5bqfj8AAHoA-43" edge="1">
          <mxGeometry relative="1" as="geometry">
            <Array as="points">
              <mxPoint x="470" y="486" />
              <mxPoint x="560" y="486" />
              <mxPoint x="560" y="465" />
            </Array>
          </mxGeometry>
        </mxCell>
        <mxCell id="t0zLgR5mg5bqfj8AAHoA-56" style="edgeStyle=orthogonalEdgeStyle;rounded=0;orthogonalLoop=1;jettySize=auto;html=1;entryX=0.178;entryY=-0.05;entryDx=0;entryDy=0;entryPerimeter=0;" parent="1" target="t0zLgR5mg5bqfj8AAHoA-52" edge="1">
          <mxGeometry relative="1" as="geometry">
            <mxPoint x="320" y="360" as="sourcePoint" />
          </mxGeometry>
        </mxCell>
        <mxCell id="t0zLgR5mg5bqfj8AAHoA-47" value="Δ inclination" style="rounded=1;whiteSpace=wrap;html=1;" parent="1" vertex="1">
          <mxGeometry x="280" y="342" width="80" height="28" as="geometry" />
        </mxCell>
        <mxCell id="t0zLgR5mg5bqfj8AAHoA-51" value="" style="endArrow=classic;html=1;entryX=0.5;entryY=0;entryDx=0;entryDy=0;exitX=0.5;exitY=1;exitDx=0;exitDy=0;" parent="1" source="t0zLgR5mg5bqfj8AAHoA-43" target="t0zLgR5mg5bqfj8AAHoA-61" edge="1">
          <mxGeometry width="50" height="50" relative="1" as="geometry">
            <mxPoint x="410" y="579" as="sourcePoint" />
            <mxPoint x="470" y="556" as="targetPoint" />
          </mxGeometry>
        </mxCell>
        <mxCell id="t0zLgR5mg5bqfj8AAHoA-58" style="edgeStyle=orthogonalEdgeStyle;rounded=0;orthogonalLoop=1;jettySize=auto;html=1;exitX=0.75;exitY=1;exitDx=0;exitDy=0;entryX=0.5;entryY=0;entryDx=0;entryDy=0;" parent="1" source="t0zLgR5mg5bqfj8AAHoA-52" target="t0zLgR5mg5bqfj8AAHoA-43" edge="1">
          <mxGeometry relative="1" as="geometry">
            <Array as="points">
              <mxPoint x="470" y="421" />
            </Array>
          </mxGeometry>
        </mxCell>
        <mxCell id="t0zLgR5mg5bqfj8AAHoA-52" value="80%, training" style="rounded=0;whiteSpace=wrap;html=1;" parent="1" vertex="1">
          <mxGeometry x="270" y="391" width="280" height="30" as="geometry" />
        </mxCell>
        <mxCell id="t0zLgR5mg5bqfj8AAHoA-60" value="" style="endArrow=classic;html=1;entryX=0.921;entryY=0.019;entryDx=0;entryDy=0;entryPerimeter=0;" parent="1" target="t0zLgR5mg5bqfj8AAHoA-61" edge="1">
          <mxGeometry width="50" height="50" relative="1" as="geometry">
            <mxPoint x="579.66" y="416" as="sourcePoint" />
            <mxPoint x="579.66" y="556" as="targetPoint" />
          </mxGeometry>
        </mxCell>
        <mxCell id="t0zLgR5mg5bqfj8AAHoA-53" value="&lt;div&gt;20%&lt;/div&gt;&lt;div&gt;validation&lt;br&gt;&lt;/div&gt;" style="rounded=0;whiteSpace=wrap;html=1;" parent="1" vertex="1">
          <mxGeometry x="550" y="391" width="60" height="30" as="geometry" />
        </mxCell>
        <mxCell id="t0zLgR5mg5bqfj8AAHoA-63" style="edgeStyle=orthogonalEdgeStyle;rounded=0;orthogonalLoop=1;jettySize=auto;html=1;exitX=0.5;exitY=1;exitDx=0;exitDy=0;entryX=0.5;entryY=0;entryDx=0;entryDy=0;" parent="1" source="t0zLgR5mg5bqfj8AAHoA-61" target="t0zLgR5mg5bqfj8AAHoA-62" edge="1">
          <mxGeometry relative="1" as="geometry" />
        </mxCell>
        <mxCell id="t0zLgR5mg5bqfj8AAHoA-61" value="10 randomly initialized models" style="rounded=1;whiteSpace=wrap;html=1;" parent="1" vertex="1">
          <mxGeometry x="340" y="500" width="260" height="35" as="geometry" />
        </mxCell>
        <mxCell id="t0zLgR5mg5bqfj8AAHoA-68" style="edgeStyle=orthogonalEdgeStyle;rounded=0;orthogonalLoop=1;jettySize=auto;html=1;exitX=0.5;exitY=1;exitDx=0;exitDy=0;entryX=0.5;entryY=0;entryDx=0;entryDy=0;" parent="1" source="t0zLgR5mg5bqfj8AAHoA-62" target="t0zLgR5mg5bqfj8AAHoA-67" edge="1">
          <mxGeometry relative="1" as="geometry" />
        </mxCell>
        <mxCell id="t0zLgR5mg5bqfj8AAHoA-62" value="&lt;div&gt;Model with best&lt;/div&gt;&lt;div&gt;validation score&lt;/div&gt;" style="rounded=1;whiteSpace=wrap;html=1;" parent="1" vertex="1">
          <mxGeometry x="415" y="570" width="110" height="35" as="geometry" />
        </mxCell>
        <mxCell id="t0zLgR5mg5bqfj8AAHoA-67" value="&lt;div&gt;Result&lt;/div&gt;&lt;div&gt;for n%&lt;/div&gt;&lt;div&gt;drilled&lt;br&gt;&lt;/div&gt;" style="ellipse;whiteSpace=wrap;html=1;aspect=fixed;" parent="1" vertex="1">
          <mxGeometry x="435" y="620" width="70" height="70" as="geometry" />
        </mxCell>
        <mxCell id="t0zLgR5mg5bqfj8AAHoA-71" style="edgeStyle=orthogonalEdgeStyle;rounded=0;orthogonalLoop=1;jettySize=auto;html=1;exitX=0.5;exitY=1;exitDx=0;exitDy=0;" parent="1" source="t0zLgR5mg5bqfj8AAHoA-69" edge="1">
          <mxGeometry relative="1" as="geometry">
            <mxPoint x="410" y="240" as="targetPoint" />
            <mxPoint x="530" y="251" as="sourcePoint" />
            <Array as="points">
              <mxPoint x="530" y="220" />
              <mxPoint x="410" y="220" />
            </Array>
          </mxGeometry>
        </mxCell>
        <mxCell id="t0zLgR5mg5bqfj8AAHoA-72" style="edgeStyle=orthogonalEdgeStyle;rounded=0;orthogonalLoop=1;jettySize=auto;html=1;exitX=0.5;exitY=1;exitDx=0;exitDy=0;entryX=0.5;entryY=0;entryDx=0;entryDy=0;" parent="1" source="t0zLgR5mg5bqfj8AAHoA-69" target="t0zLgR5mg5bqfj8AAHoA-39" edge="1">
          <mxGeometry relative="1" as="geometry">
            <Array as="points">
              <mxPoint x="530" y="220" />
              <mxPoint x="705" y="220" />
            </Array>
          </mxGeometry>
        </mxCell>
        <mxCell id="t0zLgR5mg5bqfj8AAHoA-69" value="n=15" style="shape=parallelogram;perimeter=parallelogramPerimeter;whiteSpace=wrap;html=1;" parent="1" vertex="1">
          <mxGeometry x="495" y="180" width="70" height="20" as="geometry" />
        </mxCell>
        <mxCell id="t0zLgR5mg5bqfj8AAHoA-73" value="&lt;div&gt;repeat loop for (n+1)%&lt;/div&gt;" style="endArrow=classic;html=1;entryX=0;entryY=0.5;entryDx=0;entryDy=0;exitX=0;exitY=0.5;exitDx=0;exitDy=0;" parent="1" source="t0zLgR5mg5bqfj8AAHoA-67" target="t0zLgR5mg5bqfj8AAHoA-69" edge="1">
          <mxGeometry x="-0.7289" y="-15" width="50" height="50" relative="1" as="geometry">
            <mxPoint x="470" y="720" as="sourcePoint" />
            <mxPoint x="530" y="240" as="targetPoint" />
            <Array as="points">
              <mxPoint x="240" y="655" />
              <mxPoint x="240" y="190" />
            </Array>
            <mxPoint as="offset" />
          </mxGeometry>
        </mxCell>
        <mxCell id="IG6GarAEUEpLXlJMv6_5-2" value="Newly aquired data expands the training dataset of the next iteration" style="text;html=1;strokeColor=none;fillColor=none;align=center;verticalAlign=middle;whiteSpace=wrap;rounded=0;dashed=1;" vertex="1" parent="1">
          <mxGeometry x="230" y="670" width="195" height="10" as="geometry" />
        </mxCell>
        <mxCell id="IG6GarAEUEpLXlJMv6_5-3" value="Elements specific to case study" style="text;html=1;strokeColor=none;fillColor=none;align=center;verticalAlign=middle;whiteSpace=wrap;rounded=0;dashed=1;" vertex="1" parent="1">
          <mxGeometry x="580" y="620" width="120" height="20" as="geometry" />
        </mxCell>
        <mxCell id="IG6GarAEUEpLXlJMv6_5-4" value="" style="endArrow=none;dashed=1;html=1;exitX=0.75;exitY=1;exitDx=0;exitDy=0;" edge="1" parent="1" source="IG6GarAEUEpLXlJMv6_5-1">
          <mxGeometry width="50" height="50" relative="1" as="geometry">
            <mxPoint x="600" y="650" as="sourcePoint" />
            <mxPoint x="710" y="650" as="targetPoint" />
            <Array as="points">
              <mxPoint x="580" y="650" />
            </Array>
          </mxGeometry>
        </mxCell>
      </root>
    </mxGraphModel>
  </diagram>
</mxfile>
